<svg xmlns="http://www.w3.org/2000/svg" viewBox="0 0 40 40" width="40" height="40">
  <!-- Gradient Definition -->
  <defs>
    <linearGradient id="gradient" x1="0%" y1="0%" x2="100%" y2="100%">
      <stop offset="0%" style="stop-color:#dc2626;stop-opacity:1" />
      <stop offset="100%" style="stop-color:#991b1b;stop-opacity:1" />
    </linearGradient>
    <filter id="shadow" x="-20%" y="-20%" width="140%" height="140%">
      <feDropShadow dx="0" dy="2" stdDeviation="2" flood-color="#000000" flood-opacity="0.2"/>
    </filter>
  </defs>
  
  <!-- Background Circle -->
  <circle cx="20" cy="20" r="18" fill="url(#gradient)" filter="url(#shadow)"/>
  
  <!-- Movie Camera Icon -->
  <g transform="translate(8, 10)">
    <!-- Camera Body -->
    <rect x="0" y="6" width="20" height="12" rx="2" fill="white" opacity="0.95"/>
    <!-- Lens -->
    <circle cx="6" cy="12" r="4" fill="white" stroke="#dc2626" stroke-width="1"/>
    <circle cx="6" cy="12" r="2" fill="#dc2626"/>
    <!-- Viewfinder -->
    <rect x="2" y="2" width="4" height="3" rx="1" fill="white" opacity="0.9"/>
    <!-- Film Reel -->
    <circle cx="16" cy="8" r="2.5" fill="white" opacity="0.9"/>
    <circle cx="16" cy="8" r="1" fill="#dc2626"/>
    <circle cx="16" cy="16" r="2.5" fill="white" opacity="0.9"/>
    <circle cx="16" cy="16" r="1" fill="#dc2626"/>
    <!-- Film Strip connecting reels -->
    <rect x="13.5" y="10" width="5" height="4" fill="white" opacity="0.7"/>
    <rect x="14" y="10.5" width="4" height="0.5" fill="#dc2626"/>
    <rect x="14" y="11.5" width="4" height="0.5" fill="#dc2626"/>
    <rect x="14" y="12.5" width="4" height="0.5" fill="#dc2626"/>
    <rect x="14" y="13.5" width="4" height="0.5" fill="#dc2626"/>
  </g>
</svg>